<?xml version="1.0" encoding="utf-8"?>
<!-- Generator: Adobe Illustrator 18.1.1, SVG Export Plug-In . SVG Version: 6.00 Build 0)  -->
<!DOCTYPE svg PUBLIC "-//W3C//DTD SVG 1.1//EN" "http://www.w3.org/Graphics/SVG/1.1/DTD/svg11.dtd">
<svg version="1.1" id="Layer_1" xmlns="http://www.w3.org/2000/svg" xmlns:xlink="http://www.w3.org/1999/xlink" x="0px" y="0px"
	 viewBox="0 0 32 32" enable-background="new 0 0 32 32" xml:space="preserve">
<g>
	<g>
		<path fill="#164B99" d="M0,6.9c1.5,0,3.1-0.3,4.6,0.1C6.2,7.6,7,8.9,7.3,10.6c0.2,0.9,0.2,1.7,0.1,2.6c-0.1,2.3-0.4,5.1-0.3,7.4
			c0,1.6,0.4,2.6,1.5,3.6c0.2,0.2,0.6,0.4,0.5,0.7c-0.2,0.3-0.6,0.3-0.9,0.3c-0.8,0-1.7-0.1-2.5-0.4c-1.7-0.6-3.1-2.1-3.1-4.2
			c0-2.9,0.4-5.8,0.4-8.7C2.9,9.4,2.2,8.2,0,6.9z"/>
		<path fill="#164B99" d="M5.6,6.9c1.5,0,3.1-0.3,4.6,0.1c1.7,0.5,2.4,1.9,2.7,3.5c0.2,0.9,0.2,1.7,0.1,2.6
			c-0.1,2.3-0.4,5.1-0.3,7.4c0,1.6,0.4,2.6,1.5,3.6c0.2,0.2,0.6,0.4,0.5,0.7c-0.2,0.3-0.6,0.3-0.9,0.3c-0.8,0-1.7-0.1-2.5-0.4
			c-1.7-0.6-3.1-2.1-3.1-4.2c0-2.9,0.4-5.8,0.4-8.7C8.6,9.4,7.8,8.2,5.6,6.9z"/>
		<path fill="#164B99" d="M11.2,6.9c1.5,0,3.1-0.3,4.6,0.1c1.7,0.5,2.4,1.9,2.7,3.5c0.2,0.9,0.2,1.7,0.1,2.6
			c-0.1,2.3-0.4,5.1-0.3,7.4c0,1.6,0.4,2.6,1.5,3.6c0.2,0.2,0.6,0.4,0.5,0.7c-0.2,0.3-0.6,0.3-0.9,0.3c-0.8,0-1.7-0.1-2.5-0.4
			c-1.7-0.6-3.1-2.1-3.1-4.2c0-2.9,0.4-5.8,0.4-8.7C14.2,9.4,13.4,8.2,11.2,6.9z"/>
		<path fill="#164B99" d="M22.7,25.2c-0.6,0-1.5-0.8-1.7-1c-1.1-1-1.4-2-1.5-3.6c0-1.4,0.1-3.1,0.2-4.6c0.2,0,0.4,0,0.7,0
			c1.4,0,2.8,0,4.1,0c1.3,0,2.6,0,3.9,0c1.6,0,2.8,0.8,3.2,2.3c0.5,1.7,0.5,3.4-0.3,5c-0.6,1.2-1.6,1.9-3,1.9L22.7,25.2z"/>
		<path fill="#164B99" d="M26.9,6.8c-1.4,0-2.9,0-4.3,0c-1.5,0-2.9,0-4.4,0c-0.2,0-0.6-0.1-0.7,0.2c-0.1,0.3,0.2,0.4,0.4,0.6
			c0.2,0.1,0.3,0.2,0.4,0.4c0.8,0.7,1.2,1.7,1.4,2.8c0.2,0.9,0.2,1.8,0.1,2.7c0,0.4,0,0.8-0.1,1.2c0.1,0.1,0.3,0.2,0.6,0.2
			c2.4,0,4.9,0,7.3,0c1,0,1.7-0.5,2.1-1.3c0.5-0.9,0.6-1.9,0.6-3C30.5,8.2,29.2,6.8,26.9,6.8z"/>
	</g>
</g>
</svg>
